<?xml version="1.0" standalone="no"?>
<!DOCTYPE svg PUBLIC "-//W3C//DTD SVG 20010904//EN"
 "http://www.w3.org/TR/2001/REC-SVG-20010904/DTD/svg10.dtd">
<svg version="1.0" xmlns="http://www.w3.org/2000/svg"
 width="500.000000pt" height="500.000000pt" viewBox="0 0 500.000000 500.000000"
 preserveAspectRatio="xMidYMid meet">
<metadata>
Created by potrace 1.14, written by Peter Selinger 2001-2017
</metadata>
<g transform="translate(0.000000,500.000000) scale(0.100000,-0.100000)"
fill="#000000" stroke="none">
<path d="M2350 4373 c-47 -6 -98 -14 -115 -17 -86 -17 -293 -87 -325 -111 -8
-6 -32 -19 -53 -28 -39 -18 -65 -37 -190 -136 -58 -46 -103 -94 -207 -217 -84
-101 -202 -364 -225 -505 -4 -24 -10 -53 -13 -64 -3 -11 -6 -90 -8 -175 -3
-145 0 -179 30 -319 12 -54 61 -189 88 -241 15 -30 28 -58 28 -63 0 -21 174
-268 234 -332 27 -29 119 -153 148 -200 13 -22 37 -77 51 -123 23 -70 28 -106
32 -227 4 -111 9 -153 24 -188 21 -48 65 -87 121 -107 35 -12 36 -14 33 -60
-2 -27 1 -51 7 -55 15 -9 12 -71 -5 -85 -19 -16 -19 -29 1 -51 9 -10 17 -30
17 -45 0 -15 -8 -31 -17 -36 -20 -11 -21 -47 -1 -54 20 -8 19 -48 -1 -79 -13
-20 -14 -28 -4 -40 7 -8 18 -15 26 -15 7 0 22 -13 33 -28 11 -15 43 -41 73
-57 29 -15 59 -35 65 -44 7 -9 26 -33 42 -54 61 -78 70 -82 221 -84 190 -3
220 6 289 88 30 35 67 70 81 77 46 23 102 74 96 89 -3 8 0 13 7 11 21 -4 55
12 61 28 3 9 -3 27 -13 41 -20 25 -19 40 7 80 12 20 12 25 -7 48 -21 27 -19
47 11 94 10 17 9 23 -5 39 -19 21 -23 72 -6 89 6 6 11 29 11 50 -1 38 1 39 45
53 60 17 118 75 134 132 6 24 13 97 15 163 3 119 30 247 66 315 24 46 95 144
155 215 121 144 212 273 267 378 30 59 53 107 49 107 -3 0 -1 6 4 13 5 6 17
32 26 57 68 185 83 418 42 645 -26 144 -150 416 -235 516 -25 29 -62 73 -84
98 -59 70 -88 95 -216 188 -84 60 -146 96 -205 119 -185 71 -244 87 -375 104
-115 15 -236 16 -330 3z"/>
</g>
</svg>
